<svg xmlns="http://www.w3.org/2000/svg" viewBox="0 0 256 256" width="256" height="256">
  <defs>
    <clipPath id="c-2-pergami-aire"><circle cx="128" cy="128" r="102"/></clipPath>
    <pattern id="h-2-pergami-aire" width="7" height="7" patternUnits="userSpaceOnUse" patternTransform="rotate(45)">
      <line x1="0" y1="0" x2="0" y2="7" stroke="#24170d" stroke-width="1.6" opacity="0.1"/>
    </pattern>
    <linearGradient id="s-2-pergami-aire" x1="0" x2="1">
      <stop offset=".4" stop-color="#000" stop-opacity="0"/><stop offset="1" stop-color="#000" stop-opacity=".34"/>
    </linearGradient>
  </defs>
  <circle cx="128" cy="128" r="124" fill="#24170d"/>
  <circle cx="128" cy="128" r="102" fill="#f6e9c8"/>
  <g clip-path="url(#c-2-pergami-aire)">
    <rect width="256" height="256" fill="url(#h-2-pergami-aire)"/>
    
    <g transform="translate(128 128) scale(0.927) translate(-128 -128)"><g transform="translate(128 126) scale(1.6)"><path d="M-62 -6 H-38 a9 9 0 1 0 -9 -9" fill="none" stroke="#24170d" stroke-width="11.5" stroke-linecap="round"/><path d="M-62 -6 H-38 a9 9 0 1 0 -9 -9" fill="none" stroke="#e0a21c" stroke-width="4.5" stroke-linecap="round"/>
      <g transform="scale(-1 1) translate(0 16)"><path d="M-62 -6 H-38 a9 9 0 1 0 -9 -9" fill="none" stroke="#24170d" stroke-width="11.5" stroke-linecap="round"/><path d="M-62 -6 H-38 a9 9 0 1 0 -9 -9" fill="none" stroke="#e0a21c" stroke-width="4.5" stroke-linecap="round"/></g>
      <path d="M-8 -46 H8 V-30 H28 V-14 H8 V26 H-8 V-14 H-28 V-30 H-8 Z" fill="#e0a21c" stroke="#24170d" stroke-width="4.5" stroke-linejoin="round" stroke-linecap="round"/>
      <rect x="-26" y="26" width="52" height="12" fill="#e0a21c" stroke="#24170d" stroke-width="4.5" stroke-linejoin="round" stroke-linecap="round"/>
      <rect x="-40" y="38" width="80" height="12" fill="#e0a21c" stroke="#24170d" stroke-width="4.5" stroke-linejoin="round" stroke-linecap="round"/></g></g>
  </g>
  <circle cx="128" cy="128" r="108" fill="none" stroke="#d9a93a" stroke-width="3"/>
</svg>