<svg xmlns="http://www.w3.org/2000/svg" viewBox="0 0 256 256" width="256" height="256">
  <defs>
    <clipPath id="sh-terra"><path d="M10 128 A118 118 0 1 0 246 128 A118 118 0 1 0 10 128Z"/></clipPath>
    <pattern id="hp-terra" width="7" height="7" patternUnits="userSpaceOnUse" patternTransform="rotate(45)">
      <line x1="0" y1="0" x2="0" y2="7" stroke="#24170d" stroke-width="1.6" opacity=".22"/>
    </pattern>
    <linearGradient id="sd-terra" x1="0" x2="1">
      <stop offset=".45" stop-color="#000" stop-opacity="0"/>
      <stop offset="1" stop-color="#000" stop-opacity=".32"/>
    </linearGradient>
  </defs>
  <path d="M10 128 A118 118 0 1 0 246 128 A118 118 0 1 0 10 128Z" fill="#5b8a1e"/>
  <g clip-path="url(#sh-terra)">
    <rect width="256" height="256" fill="url(#hp-terra)"/>
    <rect width="256" height="256" fill="url(#sd-terra)"/>
    <rect x="0" y="0" width="256" height="78" fill="#24170d"/>
    <line x1="0" y1="78" x2="256" y2="78" stroke="#d9a93a" stroke-width="3.5"/>
  </g>
  <g transform="translate(128 45)"><path d="M-19 -12 H19 L0 21 Z" fill="none" stroke="#f6e9c8" stroke-width="5.5" stroke-linejoin="miter"/><path d="M-25 -3 H25" fill="none" stroke="#f6e9c8" stroke-width="5.5" stroke-linejoin="miter"/></g>
  <g transform="translate(128 160) scale(1.1)"><g transform="translate(0 2)">
      <path d="M-11 -42 C-11 -32 -35 -24 -35 0 C-35 26 -16 40 0 54 C16 40 35 26 35 0 C35 -24 11 -32 11 -42 Z" fill="#f6e9c8" stroke="#24170d" stroke-width="4.5" stroke-linejoin="round" stroke-linecap="round"/>
      <rect x="-16" y="-52" width="32" height="10" rx="4" fill="#f6e9c8" stroke="#24170d" stroke-width="4.5" stroke-linejoin="round" stroke-linecap="round"/>
      <path d="M-11 -36 C-40 -44 -46 -16 -34 -8" fill="none" stroke="#24170d" stroke-width="11" stroke-linecap="round"/>
      <path d="M-11 -36 C-40 -44 -46 -16 -34 -8" fill="none" stroke="#f6e9c8" stroke-width="4" stroke-linecap="round"/>
      <path d="M11 -36 C40 -44 46 -16 34 -8" fill="none" stroke="#24170d" stroke-width="11" stroke-linecap="round"/>
      <path d="M11 -36 C40 -44 46 -16 34 -8" fill="none" stroke="#f6e9c8" stroke-width="4" stroke-linecap="round"/>
      <path d="M-33 -6 Q0 8 33 -6" fill="none" stroke="#24170d" stroke-width="3.5"/>
      <path d="M-30 12 Q0 26 30 12" fill="none" stroke="#24170d" stroke-width="3.5"/>
      <path d="M16 -20 L26 -10 M12 2 L28 -4 M10 26 L24 20 M6 40 L16 34" stroke="#24170d" stroke-width="2.2" stroke-linecap="round" fill="none" opacity=".55"/>
    </g></g>
  <path d="M10 128 A118 118 0 1 0 246 128 A118 118 0 1 0 10 128Z" fill="none" stroke="#24170d" stroke-width="10" stroke-linejoin="round"/>
  <path d="M10 128 A118 118 0 1 0 246 128 A118 118 0 1 0 10 128Z" fill="none" stroke="#d9a93a" stroke-width="2.5" stroke-linejoin="round" transform="translate(128 128) scale(.94) translate(-128 -128)"/>
</svg>